<svg width="196" height="290" viewBox="0 0 196 290" fill="none" xmlns="http://www.w3.org/2000/svg">
<g filter="url(#filter0_d_1_881)">
<rect x="17" y="107.098" width="29" height="28.4752" rx="10" fill="#F0EFF2"/>
</g>
<path d="M27.85 122.583C27.85 123.335 27.225 123.968 26.425 123.968C25.625 123.968 25 123.335 25 122.583C25 121.83 25.625 121.197 26.425 121.197C27.225 121.197 27.85 121.83 27.85 122.583Z" stroke="black" stroke-width="1.5"/>
<path d="M32.925 116.613C32.925 117.365 32.3 117.999 31.5 117.999C30.7 117.999 30.075 117.365 30.075 116.613C30.075 115.861 30.7 115.227 31.5 115.227C32.3 115.227 32.925 115.861 32.925 116.613Z" stroke="black" stroke-width="1.5"/>
<path d="M38 123.699C38 124.451 37.375 125.084 36.575 125.084C35.775 125.084 35.15 124.451 35.15 123.699C35.15 122.946 35.775 122.313 36.575 122.313C37.375 122.313 38 122.946 38 123.699Z" stroke="black" stroke-width="1.5"/>
<path d="M26.425 115.285V120.786" stroke="black" stroke-width="1.5" stroke-linecap="round"/>
<path d="M26.425 124.303V127.061" stroke="black" stroke-width="1.5" stroke-linecap="round"/>
<path d="M31.5 118.389V127.061" stroke="black" stroke-width="1.5" stroke-linecap="round"/>
<path d="M36.575 115.285L36.575 121.949" stroke="black" stroke-width="1.5" stroke-linecap="round"/>
<path d="M36.575 125.423V127.061" stroke="black" stroke-width="1.5" stroke-linecap="round"/>
<defs>
<filter id="filter0_d_1_881" x="-133" y="-38.9022" width="329" height="328.475" filterUnits="userSpaceOnUse" color-interpolation-filters="sRGB">
<feFlood flood-opacity="0" result="BackgroundImageFix"/>
<feColorMatrix in="SourceAlpha" type="matrix" values="0 0 0 0 0 0 0 0 0 0 0 0 0 0 0 0 0 0 127 0" result="hardAlpha"/>
<feOffset dy="4"/>
<feGaussianBlur stdDeviation="75"/>
<feComposite in2="hardAlpha" operator="out"/>
<feColorMatrix type="matrix" values="0 0 0 0 0.717483 0 0 0 0 0.749558 0 0 0 0 0.779167 0 0 0 0.25 0"/>
<feBlend mode="normal" in2="BackgroundImageFix" result="effect1_dropShadow_1_881"/>
<feBlend mode="normal" in="SourceGraphic" in2="effect1_dropShadow_1_881" result="shape"/>
</filter>
</defs>
</svg>
